<?xml version="1.0" encoding="UTF-8"?>
<svg id="Layer_1" xmlns="http://www.w3.org/2000/svg" version="1.1" viewBox="0 0 2436 1125">
  <!-- Generator: Adobe Illustrator 30.1.0, SVG Export Plug-In . SVG Version: 2.1.1 Build 136)  -->
  <defs>
    <style>
      .st0, .st1 {
        fill: #231f20;
      }

      .st0, .st2 {
        fill-rule: evenodd;
      }

      .st2 {
        fill: #f27321;
      }
    </style>
  </defs>
  <polygon class="st0" points="461.38 521.67 290.05 711.29 460.77 900.07 356.62 900.07 238.49 769.21 238.49 900.07 160.84 900.07 160.84 521.67 238.49 521.67 238.49 653.34 357.23 521.67 461.38 521.67"/>
  <rect class="st1" x="861.78" y="521.67" width="77.45" height="378.4"/>
  <path class="st0" d="M1827.88,711.08c0-9.47-1.37-19.6-4.11-30.43-3.01-10.83-7.47-20.98-13.36-30.43-6.31-9.74-14.2-18.58-23.66-26.53-9.87-8.09-21.53-14.67-34.96-19.75-3.29-1.09-6.51-1.84-9.66-2.27-1.92-.12-3.74-.37-5.46-.7-1.71-.35-3.19-.65-4.42-.93-1.1-.14-4.66-.77-10.69-1.86-5.48-.27-7.89-.41-7.2-.41-7.69,0-15.83,1.02-24.47,3.1-8.38,2.04-16.95,5.28-25.7,9.66-9.21,4.8-17.36,10.48-24.48,17.05-7.41,6.6-14.13,14.82-20.15,24.7-7.41,12.2-12.01,23.99-13.8,35.36-.68,3.15-1.36,6.98-2.05,11.53-.4,3.68-.61,7.66-.61,11.92,0,15.37,2.95,29.68,8.83,42.98,5.36,13.15,13.38,25.01,24.07,35.57,10.15,10.42,22.07,18.5,35.79,24.27,13.7,6.18,28.23,9.24,43.61,9.24s29.06-2.93,43.18-8.83c13.43-5.61,25.36-13.59,35.78-23.86,10.41-10.15,18.58-21.94,24.47-35.38,6.04-13.14,9.05-27.82,9.05-44h0ZM1905.42,711.08c0,26.59-4.94,51.27-14.82,74.03-9.85,22.89-23.44,42.77-40.71,59.62-17.13,17.15-37.22,30.65-60.24,40.52-22.91,9.88-47.59,14.81-74.04,14.81s-51.08-4.93-73.82-14.81c-23.04-9.87-43.19-23.44-60.47-40.71-17.53-17.29-31.17-37.22-40.93-59.85-9.85-23.16-14.79-47.83-14.79-74.03s4.94-50.52,14.79-73.42c9.61-22.74,23.25-42.97,40.93-60.66,17.41-17.41,37.57-31.05,60.47-40.92,22.74-9.87,47.37-14.81,73.82-14.81s51.75,5.01,74.65,15.02c22.9,10.14,42.91,23.85,60.05,41.13,17,17.13,30.5,37.36,40.52,60.66,9.72,22.76,14.59,47.23,14.6,73.42Z"/>
  <polygon class="st0" points="2275.16 900.07 2198.05 900.07 2030.86 657.82 2030.86 900.07 1953.12 900.07 1953.12 521.27 2030.44 521.27 2197.63 763.32 2197.63 521.27 2275.16 521.27 2275.16 900.07"/>
  <path class="st0" d="M729.55,736.81c20.26-13.77,34.48-29.59,42.23-47.03,8.08-17.2,12.15-34.66,12.15-51.86,0-7.65-.81-15.61-2.46-23.67-2.05-9.54-5.31-19.11-9.69-28.41-4.9-9.57-11.34-18.84-19.14-27.59-7.65-8.06-15.12-14.29-22.24-18.52-8.33-4.78-16.06-8.71-23.03-11.74-1.93-.83-4.28-1.56-7.22-2.27-2.57-.81-5.95-1.7-10.06-2.66-4.78-1.1-8.26-1.8-10.31-2.06-4.43-.57-7.07-.83-8.04-.83h-137.86v77.49h136.02c.52,0,2.18.21,4.85.62,3,.81,5.12,1.49,6.35,2.04,9.09,3.8,15.68,9.36,19.62,16.53,3.51,7.33,5.31,14.34,5.31,20.85s-1.79,13.59-5.31,20.66c-3.53,7.03-10.13,12.52-19.61,16.33h0s-.01.01-.01.01h0s0,0,0,0c-.53.09-2.01.58-6.33,2.01-4.04.95-4.76,1.02-4.88,1.02h-136.02v221.92h77.9v-144.62h40.3l65.06,144.9.06.13h84.73l-72.39-163.26Z"/>
  <path class="st0" d="M1300.98,631.57c-.67-6.3-1.9-12.33-3.68-18.08-2.89-8.36-6.57-16.78-11.1-25.27-4.52-9.18-10.08-17.19-16.64-24.04-8.78-9.87-17.46-17.39-26.09-22.6-8.92-5.2-18.09-9.65-27.54-13.36-.82-.13-1.77-.33-2.88-.59-1.1-.3-2.4-.62-3.91-1.05-1.63-.4-3.32-.8-5.03-1.22-1.72-.42-3.38-.9-5.02-1.44-2.48-.54-6.04-1.23-10.7-2.05-3.28-.43-6.16-.62-8.62-.62h-137.85v76.83h134.14c-.54,0,.97.14,4.53.41,4.12,1.1,6.44,1.72,6.98,1.86,5.9,1.37,11.53,3.9,16.86,7.58,5.21,4.25,9.24,8.36,12.12,12.33,3.29,4.81,5.68,9.72,7.2,14.81,1.5,5.19,2.26,10.13,2.26,14.78,0,9.17-3.15,18.97-9.45,29.39-6.45,10.26-16.11,17.11-28.98,20.52-.81.16-1.74.35-2.76.62-1.02.28-2.15.48-3.38.61-3.85.57-5.61.83-5.36.83h-134.14v198.25h77.66v-121.41h61.21c3.98,0,8.89-.75,14.79-2.26,2.88-.56,5.43-1.1,7.7-1.65,2.26-.56,4.21-1.04,5.85-1.44,13.02-3.29,25.08-8.76,36.18-16.43,11.76-7.82,21.69-16.93,29.77-27.33,8.77-11.1,15.55-23.15,20.35-36.16,4.78-13.68,7.18-28.14,7.18-43.33,0-5.77-.54-11.92-1.65-18.49Z"/>
  <path class="st2" d="M1353.94,418.14c-1.13,4.63-1.71,9.44-1.79,14.41h-138.61c0-4.85.16-9.64.5-14.41h139.9ZM1369.5,389.07c-3.24,3.49-6.11,7.34-8.54,11.5l-120.53-71.84c2.33-4.16,4.82-8.25,7.39-12.2l121.68,72.55h0ZM1395.29,372.49l-70.34-125.83c-4.16,2.14-8.25,4.44-12.26,6.86l69.81,124.89c3.98-2.44,8.27-4.46,12.79-5.92h0ZM1615.49,432.55h-139.34c-.05-4.97-.65-9.78-1.78-14.41h140.62c.32,4.77.49,9.56.49,14.41h0ZM1588.61,328.73l-121.07,72.18c-2.38-4.18-5.24-8.04-8.45-11.54l122.12-72.85c2.59,3.96,5.05,8.04,7.41,12.2h0ZM1516.35,253.52c-4.01-2.42-8.09-4.72-12.25-6.86l-70.46,126.04c4.49,1.52,8.76,3.58,12.73,6.07l69.98-125.24h0ZM1421.13,225.05v144.82c-2.29-.27-4.63-.42-6.98-.42s-4.68.14-6.96.42v-144.77c2.42-.14,4.86-.17,7.33-.17,2.2,0,4.41.03,6.61.12h0ZM1463.11,432.55c-.01-.59,0-1.13-.03-1.69-.02-.58-.05-1.14-.1-1.67-.03-.57-.05-1.13-.12-1.67-.11-1.12-.25-2.2-.43-3.28-.11-.56-.18-1.08-.3-1.64-.08-.52-.22-1.03-.32-1.57-.01-.04-.01-.06-.01-.11-.13-.48-.26-1-.39-1.48-1.09-4.16-2.7-8.13-4.76-11.79-.18-.31-.36-.62-.54-.93-.37-.67-.8-1.35-1.23-2-.43-.66-.88-1.31-1.35-1.94-.32-.49-.69-.96-1.05-1.41-.25-.32-.49-.64-.77-.95-.23-.27-.44-.53-.64-.8-.29-.32-.57-.65-.86-.96-.82-.92-1.67-1.8-2.57-2.66-2.24-2.11-4.67-4.05-7.27-5.71-.01,0-.03,0-.04-.04-.39-.25-.78-.48-1.19-.73-.47-.28-.96-.58-1.44-.84-.48-.27-.95-.53-1.45-.76-.99-.52-1.99-.99-3.02-1.41-.49-.23-1.01-.42-1.49-.61-.18-.07-.35-.12-.52-.18-.47-.2-.95-.37-1.43-.51-.87-.3-1.77-.56-2.64-.8-1.78-.49-3.6-.87-5.42-1.12-2.22-.32-4.47-.51-6.78-.51-2.55,0-5.07.21-7.52.6-1.57.27-3.14.61-4.67,1.02-4.75,1.27-9.19,3.25-13.24,5.88-2.61,1.66-5.05,3.6-7.28,5.71-3.54,3.39-6.6,7.32-9,11.66-1.8,3.18-3.24,6.55-4.3,10.13-1.4,4.64-2.16,9.62-2.16,14.77h96.34ZM1213.14,504.07h153.57v396h40.2v-199.01h14.4v199.01h41.73v-396h152.04v-57.16h-401.95v57.16Z"/>
</svg>